<svg id="Layer_1" data-name="Layer 1" xmlns="http://www.w3.org/2000/svg" viewBox="0 0 32.58 31.84"><defs><style>.cls-1{fill:#fff;fill-rule:evenodd;}</style></defs><title>GitHub White</title><path class="cls-1" d="M16.29,0a16.29,16.29,0,0,0-5.15,31.75c.81.15,1.11-.36,1.11-.79V28.19C7.72,29.19,6.76,26,6.76,26A4.33,4.33,0,0,0,5,23.62c-1.47-1,.12-1,.12-1A3.46,3.46,0,0,1,7.56,24.3a3.49,3.49,0,0,0,4.73,1.37h0a3.46,3.46,0,0,1,1-2.18c-3.62-.41-7.42-1.81-7.42-8a6.31,6.31,0,0,1,1.67-4.37,5.94,5.94,0,0,1,.16-4.31s1.37-.44,4.48,1.67a15.48,15.48,0,0,1,8.16,0c3.11-2.11,4.47-1.67,4.47-1.67A5.89,5.89,0,0,1,25,11.06a6.31,6.31,0,0,1,1.67,4.37c0,6.26-3.81,7.63-7.44,8a3.85,3.85,0,0,1,1.11,3V30.9c0,.53.29.94,1.12.79A16.3,16.3,0,0,0,16.29-.06Z" transform="translate(0.02 0.06)"/></svg>